<svg width="258" height="88" viewBox="0 0 258 88" fill="none" xmlns="http://www.w3.org/2000/svg">
<path fill-rule="evenodd" clip-rule="evenodd" d="M206.208 10.4815C215.788 6.03144 226.176 3.57517 236.723 3.71038L237.19 3.71624C241.157 3.76533 245.618 3.82054 249.151 4.9846C250.955 5.57913 252.397 6.4283 253.387 7.61215C254.358 8.77195 255 10.3767 255 12.6984C255 17.9829 252.121 21.7801 248.293 25.6207C247.464 26.4524 246.607 27.2712 245.731 28.1071L245.334 28.487C244.327 29.4496 243.303 30.4358 242.32 31.4563C240.356 33.4946 238.5 35.7229 237.166 38.3144C234.325 43.8369 233.007 48.1826 232.843 54.9733C232.696 61.1147 233.493 69.3044 234.884 82.2606C234.249 81.4629 233.543 80.5628 232.801 79.6152L232.8 79.614C232.588 79.3435 232.372 79.0692 232.155 78.7922C230.732 76.9794 229.22 75.0643 227.875 73.4586C226.569 71.8999 225.306 70.4911 224.409 69.8077C223.75 69.3056 222.809 69.4328 222.307 70.0917C221.805 70.7506 221.932 71.6918 222.591 72.1939C223.174 72.6384 224.225 73.7743 225.575 75.3853C226.886 76.9494 228.371 78.8291 229.795 80.6444C229.938 80.8265 230.081 81.0081 230.222 81.1887L230.434 81.4587C231.616 82.9673 232.732 84.3902 233.615 85.4661C234.132 86.096 234.596 86.6394 234.961 87.0199C235.135 87.2019 235.334 87.3971 235.532 87.5479C235.622 87.6161 235.793 87.7393 236.018 87.8279C236.164 87.8858 236.865 88.1407 237.541 87.6387C237.99 87.3056 238.418 86.72 238.762 86.2112C239.151 85.6354 239.593 84.9066 240.063 84.091C241.004 82.4565 242.098 80.3939 243.161 78.3356C244.174 76.3741 245.146 74.4443 245.943 72.8606C246.851 71.0578 247.533 69.7036 247.793 69.2621C248.213 68.5483 247.975 67.6288 247.261 67.2084C246.548 66.7879 245.628 67.0257 245.208 67.7395C244.908 68.2491 244.129 69.7933 243.142 71.7532C242.348 73.3272 241.42 75.1693 240.496 76.9589C239.589 78.7133 238.675 80.4426 237.862 81.8918C236.469 68.914 235.7 60.9544 235.842 55.0454C235.994 48.7586 237.175 44.8544 239.834 39.6869C240.975 37.4692 242.605 35.4841 244.48 33.5378C245.417 32.5659 246.401 31.617 247.406 30.6557L247.801 30.2792L247.801 30.2788C248.674 29.4452 249.561 28.5984 250.418 27.7385C254.353 23.7904 258 19.2457 258 12.6984C258 9.77613 257.172 7.46078 255.688 5.68687C254.224 3.93702 252.225 2.83893 250.09 2.13529C246.101 0.821002 241.216 0.763386 237.382 0.718158L237.382 0.718154C237.172 0.715676 236.965 0.713236 236.761 0.710628C225.722 0.569095 214.891 3.14049 204.945 7.76074C195.461 12.166 186.432 18.7154 177.487 25.204L177.487 25.2041L177.486 25.2047C174.189 27.5966 170.903 29.9802 167.61 32.2451C155.261 40.7377 142.682 47.6824 128.341 48.1915C126.902 48.2426 125.441 48.258 123.976 48.2234C130.212 42.9731 135.214 36.3752 136.647 28.0758C137.299 24.3028 137.23 20.3949 135.767 17.2411C134.251 13.9714 131.323 11.7033 126.768 11.2072C117.327 10.179 106.947 13.854 100.39 20.8311C94.5345 27.0624 94.046 36.3977 100.128 42.7596C104.375 47.2013 110.026 49.4375 115.864 50.4685C110.787 53.7585 105.289 56.4357 100.258 58.6422C84.9575 65.3519 67.8495 68.9078 51.1728 68.1381L51.1382 68.1365H51.1036C35.3158 68.1365 21.4442 60.0645 12.8597 49.6149C4.21518 39.0924 1.24949 26.6242 6.3039 17.7425C6.71364 17.0225 6.46212 16.1067 5.74212 15.6969C5.02212 15.2872 4.10628 15.5387 3.69654 16.2587C-2.24905 26.7064 1.53528 40.5563 10.5416 51.5193C19.6017 62.5477 34.2679 71.1247 51.0689 71.1365C68.2401 71.9231 85.793 68.2613 101.463 61.3896C107.475 58.7529 114.302 55.3877 120.35 51.0389C123.12 51.2665 125.862 51.2814 128.447 51.1896C143.694 50.6483 156.878 43.2671 169.31 34.717C172.752 32.3495 176.128 29.9009 179.476 27.4721C188.338 21.0439 197.008 14.7552 206.208 10.4815ZM121.18 46.6398C120.628 47.0845 120.067 47.5198 119.496 47.9461C112.957 47.2652 106.688 45.2798 102.297 40.6865C97.4198 35.5853 97.707 28.0672 102.577 22.8856C108.468 16.6167 117.908 13.26 126.443 14.1896C130.019 14.5791 131.999 16.246 133.046 18.503C134.146 20.8759 134.292 24.0862 133.691 27.5651C132.358 35.2827 127.521 41.5266 121.18 46.6398Z" fill="#FFDB4C"/>
</svg>
