<svg width="349" height="174" viewBox="0 0 349 174" fill="none" xmlns="http://www.w3.org/2000/svg">
<path d="M3.99961 94.0001C-17.0002 132.238 140.5 94.6749 162.141 139.114C167.782 145.05 177.831 159.589 170.068 167.698C164.126 173.906 147.195 174.157 149.923 161.845C152.776 148.973 163.485 135.474 176.518 132.238C182.872 130.66 189.404 131.356 195.783 132.408C210.469 134.832 224.565 140.283 239.028 143.717C254.273 147.337 276.975 148.245 287.559 134C296.109 122.492 290.632 106.581 286.309 94.6749C279.482 75.8727 279.689 55.7295 290.912 38.2452C302.927 19.5272 323.796 13.3372 343.875 7.38794" stroke="#FBD437" stroke-width="3" stroke-linecap="round"/>
<path d="M314 2L346.577 5.77699C347.383 5.87051 347.748 6.83569 347.205 7.4393L326 31" stroke="#FBD437" stroke-width="3" stroke-linecap="round"/>
</svg>
