<svg aria-hidden="true" style="position:absolute;width:0;height:0" xmlns="http://www.w3.org/2000/svg" overflow="hidden">
  <defs>
    <!-- Phone icon -->
    <symbol id="phone-icon" viewBox="0 0 29 29" fill="none">
        <path d="M26.1657 20.24V23.74C26.167 24.0649 26.1005 24.3866 25.9703 24.6843C25.8401 24.982 25.6492 25.2492 25.4098 25.4689C25.1704 25.6885 24.8877 25.8558 24.5799 25.9599C24.2721 26.0639 23.946 26.1026 23.6224 26.0734C20.0323 25.6833 16.5839 24.4565 13.554 22.4917C10.7352 20.7005 8.34525 18.3106 6.55403 15.4917C4.58233 12.4481 3.35531 8.98286 2.97236 5.3767C2.94321 5.05408 2.98155 4.72892 3.08494 4.42193C3.18834 4.11494 3.35453 3.83284 3.57292 3.59359C3.79131 3.35434 4.05713 3.16319 4.35345 3.03231C4.64977 2.90142 4.97009 2.83367 5.29403 2.83337H8.79403C9.36022 2.82779 9.90912 3.02829 10.3384 3.39749C10.7677 3.76668 11.0481 4.27939 11.1274 4.84003C11.2751 5.96011 11.5491 7.05988 11.944 8.11836C12.101 8.53594 12.135 8.98977 12.0419 9.42606C11.9489 9.86235 11.7327 10.2628 11.419 10.58L9.93736 12.0617C11.5982 14.9825 14.0166 17.4009 16.9374 19.0617L18.419 17.58C18.7362 17.2664 19.1367 17.0502 19.573 16.9571C20.0093 16.8641 20.4631 16.8981 20.8807 17.055C21.9392 17.45 23.0389 17.724 24.159 17.8717C24.7258 17.9516 25.2433 18.2371 25.6133 18.6738C25.9833 19.1104 26.1799 19.6679 26.1657 20.24Z" stroke="#FBD437" stroke-width="2" stroke-linecap="round" stroke-linejoin="round"/>
    </symbol>
        <!-- Phone icon white -->
    <symbol id="phone-icon-white" viewBox="0 0 29 29" fill="none">
        <path d="M26.1657 20.24V23.74C26.167 24.0649 26.1005 24.3866 25.9703 24.6843C25.8401 24.982 25.6492 25.2492 25.4098 25.4689C25.1704 25.6885 24.8877 25.8558 24.5799 25.9599C24.2721 26.0639 23.946 26.1026 23.6224 26.0734C20.0323 25.6833 16.5839 24.4565 13.554 22.4917C10.7352 20.7005 8.34525 18.3106 6.55403 15.4917C4.58233 12.4481 3.35531 8.98286 2.97236 5.3767C2.94321 5.05408 2.98155 4.72892 3.08494 4.42193C3.18834 4.11494 3.35453 3.83284 3.57292 3.59359C3.79131 3.35434 4.05713 3.16319 4.35345 3.03231C4.64977 2.90142 4.97009 2.83367 5.29403 2.83337H8.79403C9.36022 2.82779 9.90912 3.02829 10.3384 3.39749C10.7677 3.76668 11.0481 4.27939 11.1274 4.84003C11.2751 5.96011 11.5491 7.05988 11.944 8.11836C12.101 8.53594 12.135 8.98977 12.0419 9.42606C11.9489 9.86235 11.7327 10.2628 11.419 10.58L9.93736 12.0617C11.5982 14.9825 14.0166 17.4009 16.9374 19.0617L18.419 17.58C18.7362 17.2664 19.1367 17.0502 19.573 16.9571C20.0093 16.8641 20.4631 16.8981 20.8807 17.055C21.9392 17.45 23.0389 17.724 24.159 17.8717C24.7258 17.9516 25.2433 18.2371 25.6133 18.6738C25.9833 19.1104 26.1799 19.6679 26.1657 20.24Z" stroke="#FFFFFF" stroke-width="2" stroke-linecap="round" stroke-linejoin="round"/>
    </symbol>
    <!-- Arrow prev -->
    <symbol id="prev-icon" viewBox="0 0 32 32" fill="none">
      <path d="M25.3327 16H6.66602" stroke="#2641B2" stroke-width="2" stroke-linecap="round" stroke-linejoin="round"/>
      <path d="M15.9993 25.3334L6.66602 16.0001L15.9993 6.66675" stroke="#2641B2" stroke-width="2" stroke-linecap="round" stroke-linejoin="round"/>
    </symbol>
    <!-- Arrow next -->
    <symbol id="next-icon" viewBox="0 0 32 32" fill="none">
      <path d="M6.66732 16L25.334 16" stroke="#2641B2" stroke-width="2" stroke-linecap="round" stroke-linejoin="round"/>
      <path d="M16.0007 6.66659L25.334 15.9999L16.0007 25.3333" stroke="#2641B2" stroke-width="2" stroke-linecap="round" stroke-linejoin="round"/>
    </symbol>
    <!-- Email -->
    <symbol id="email" viewBox="0 0 16 16" fill="none">
      <path d="M13.334 2.6665H2.66732C1.93094 2.6665 1.33398 3.26346 1.33398 3.99984V11.9998C1.33398 12.7362 1.93094 13.3332 2.66732 13.3332H13.334C14.0704 13.3332 14.6673 12.7362 14.6673 11.9998V3.99984C14.6673 3.26346 14.0704 2.6665 13.334 2.6665Z" stroke="white" stroke-linecap="round" stroke-linejoin="round"/>
      <path d="M14.6673 4.6665L8.68732 8.4665C8.4815 8.59545 8.24353 8.66384 8.00065 8.66384C7.75777 8.66384 7.5198 8.59545 7.31398 8.4665L1.33398 4.6665" stroke="white" stroke-linecap="round" stroke-linejoin="round"/>
    </symbol>
    <!-- Map-pin -->
    <symbol id="map-pin" viewBox="0 0 16 16" fill="none">
      <path d="M13.3327 6.66683C13.3327 10.6668 7.99935 14.6668 7.99935 14.6668C7.99935 14.6668 2.66602 10.6668 2.66602 6.66683C2.66602 5.25234 3.22792 3.89579 4.22811 2.89559C5.22831 1.8954 6.58486 1.3335 7.99935 1.3335C9.41384 1.3335 10.7704 1.8954 11.7706 2.89559C12.7708 3.89579 13.3327 5.25234 13.3327 6.66683Z" stroke="white" stroke-linecap="round" stroke-linejoin="round"/>
      <path d="M8 8.6665C9.10457 8.6665 10 7.77107 10 6.6665C10 5.56193 9.10457 4.6665 8 4.6665C6.89543 4.6665 6 5.56193 6 6.6665C6 7.77107 6.89543 8.6665 8 8.6665Z" stroke="white" stroke-linecap="round" stroke-linejoin="round"/>
    </symbol>
    <!-- Facebook -->
    <symbol id="facebook" viewBox="0 0 24 24" fill="none">
      <g clip-path="url(#clip0_1088_59514)">
      <path d="M22 11C22 4.92486 17.0751 0 11 0C4.92486 0 0 4.92486 0 11C0 16.4903 4.02252 21.0412 9.28125 21.8664V14.1797H6.48828V11H9.28125V8.57656C9.28125 5.81969 10.9235 4.29688 13.4361 4.29688C14.6392 4.29688 15.8984 4.51172 15.8984 4.51172V7.21875H14.5114C13.145 7.21875 12.7188 8.06674 12.7188 8.9375V11H15.7695L15.2818 14.1797H12.7188V21.8664C17.9775 21.0412 22 16.4903 22 11Z" fill="white"/>
      </g>
      <defs>
      <clipPath id="clip0_1088_59514">
      <rect width="22" height="22" fill="white"/>
      </clipPath>
      </defs> 
    </symbol>
    <!-- Instagram -->
    <symbol id="instagram" viewBox="0 0 24 24" fill="none">
      <path fill-rule="evenodd" clip-rule="evenodd" d="M12 2C9.284 2 8.944 2.01133 7.87733 2.06C6.81267 2.10867 6.08533 2.278 5.44933 2.52533C4.78267 2.776 4.178 3.16933 3.678 3.67867C3.16948 4.17809 2.77591 4.78233 2.52467 5.44933C2.27867 6.08533 2.10867 6.81333 2.06 7.878C2.012 8.944 2 9.28333 2 12C2 14.7167 2.01133 15.056 2.06 16.1227C2.10867 17.1873 2.278 17.9147 2.52533 18.5507C2.776 19.2173 3.16933 19.822 3.67867 20.322C4.1781 20.8305 4.78234 21.2241 5.44933 21.4753C6.08533 21.722 6.81267 21.8913 7.87733 21.94C8.944 21.9887 9.284 22 12 22C14.716 22 15.056 21.9887 16.1227 21.94C17.1873 21.8913 17.9147 21.722 18.5507 21.4747C19.2173 21.224 19.822 20.8307 20.322 20.3213C20.8305 19.8219 21.2241 19.2177 21.4753 18.5507C21.722 17.9147 21.8913 17.1873 21.94 16.1227C21.9887 15.056 22 14.716 22 12C22 9.284 21.9887 8.944 21.94 7.87733C21.8913 6.81267 21.722 6.08533 21.4747 5.44933C21.2236 4.78204 20.83 4.17755 20.3213 3.678C19.8219 3.16948 19.2177 2.77591 18.5507 2.52467C17.9147 2.27867 17.1867 2.10867 16.122 2.06C15.056 2.012 14.7167 2 12 2ZM12 3.802C14.67 3.802 14.9867 3.812 16.0413 3.86C17.016 3.90467 17.5453 4.06667 17.898 4.20467C18.3647 4.38533 18.698 4.60267 19.048 4.952C19.398 5.302 19.6147 5.63533 19.7953 6.102C19.9327 6.45467 20.0953 6.984 20.14 7.95867C20.188 9.01333 20.198 9.33 20.198 12C20.198 14.67 20.188 14.9867 20.14 16.0413C20.0953 17.016 19.9333 17.5453 19.7953 17.898C19.6353 18.3324 19.3799 18.7253 19.048 19.048C18.7254 19.38 18.3324 19.6354 17.898 19.7953C17.5453 19.9327 17.016 20.0953 16.0413 20.14C14.9867 20.188 14.6707 20.198 12 20.198C9.32933 20.198 9.01333 20.188 7.95867 20.14C6.984 20.0953 6.45467 19.9333 6.102 19.7953C5.66764 19.6353 5.27467 19.3799 4.952 19.048C4.62012 18.7253 4.36475 18.3323 4.20467 17.898C4.06733 17.5453 3.90467 17.016 3.86 16.0413C3.812 14.9867 3.802 14.67 3.802 12C3.802 9.33 3.812 9.01333 3.86 7.95867C3.90467 6.984 4.06667 6.45467 4.20467 6.102C4.38533 5.63533 4.60267 5.302 4.952 4.952C5.27463 4.62003 5.66761 4.36465 6.102 4.20467C6.45467 4.06733 6.984 3.90467 7.95867 3.86C9.01333 3.812 9.33 3.802 12 3.802Z" fill="white"/>
      <path fill-rule="evenodd" clip-rule="evenodd" d="M12 15.3367C11.5618 15.3367 11.128 15.2504 10.7231 15.0827C10.3183 14.915 9.95047 14.6692 9.64064 14.3594C9.3308 14.0495 9.08502 13.6817 8.91734 13.2769C8.74965 12.8721 8.66335 12.4382 8.66335 12C8.66335 11.5618 8.74965 11.1279 8.91734 10.7231C9.08502 10.3183 9.3308 9.95046 9.64064 9.64062C9.95047 9.33078 10.3183 9.08501 10.7231 8.91732C11.128 8.74964 11.5618 8.66333 12 8.66333C12.885 8.66333 13.7336 9.01487 14.3594 9.64062C14.9851 10.2664 15.3367 11.1151 15.3367 12C15.3367 12.8849 14.9851 13.7336 14.3594 14.3594C13.7336 14.9851 12.885 15.3367 12 15.3367ZM12 6.86C10.6368 6.86 9.32942 7.40153 8.36549 8.36547C7.40155 9.32941 6.86002 10.6368 6.86002 12C6.86002 13.3632 7.40155 14.6706 8.36549 15.6345C9.32942 16.5985 10.6368 17.14 12 17.14C13.3632 17.14 14.6706 16.5985 15.6345 15.6345C16.5985 14.6706 17.14 13.3632 17.14 12C17.14 10.6368 16.5985 9.32941 15.6345 8.36547C14.6706 7.40153 13.3632 6.86 12 6.86ZM18.6353 6.76667C18.6353 7.0889 18.5073 7.39794 18.2795 7.6258C18.0516 7.85366 17.7426 7.98167 17.4204 7.98167C17.0981 7.98167 16.7891 7.85366 16.5612 7.6258C16.3334 7.39794 16.2053 7.0889 16.2053 6.76667C16.2053 6.44443 16.3334 6.13539 16.5612 5.90753C16.7891 5.67968 17.0981 5.55167 17.4204 5.55167C17.7426 5.55167 18.0516 5.67968 18.2795 5.90753C18.5073 6.13539 18.6353 6.44443 18.6353 6.76667Z" fill="white"/>
      <path d="M2.06 16.1227C2.10867 17.1873 2.278 17.9147 2.52533 18.5507C2.776 19.2173 3.16933 19.822 3.67867 20.322C4.1781 20.8305 4.78234 21.2241 5.44933 21.4753L7.89255 21.607C7.89254 21.607 7.89254 21.607 7.89253 21.607C6.85953 21.5598 6.1683 21.3967 5.56987 21.1645L5.56684 21.1634C4.94516 20.9292 4.38198 20.5624 3.91648 20.0884L3.91652 20.0884L3.91218 20.0841C3.43751 19.6182 3.07095 19.0546 2.83734 18.4334L2.83736 18.4333L2.836 18.4299C2.60335 17.8316 2.44021 17.1405 2.39299 16.1075L2.06 16.1227ZM2.06 16.1227C2.01133 15.056 2 14.7167 2 12C2 9.28333 2.012 8.944 2.06 7.878L2.39299 16.1074M2.06 16.1227L2.39299 16.1074M16.1227 21.94C17.1873 21.8913 17.9147 21.722 18.5507 21.4747C19.2173 21.224 19.822 20.8307 20.322 20.3213L16.1227 21.94ZM16.1227 21.94L16.1075 21.607M16.1227 21.94L16.1074 21.607C16.1075 21.607 16.1075 21.607 16.1075 21.607M2.39299 16.1074C2.34467 15.0484 2.33333 14.7151 2.33333 12C2.33333 9.2853 2.34533 8.95162 2.39299 7.89322V16.1074ZM5.56666 2.83736L5.56665 2.83734C4.94536 3.07095 4.38185 3.43751 3.91587 3.91218L3.9116 3.91653L3.91157 3.91649C3.4376 4.38197 3.07077 4.94515 2.83661 5.56683L2.83557 5.56959L2.83555 5.56958C2.60397 6.16832 2.44021 6.86034 2.39299 7.89313L5.56666 2.83736ZM5.56666 2.83736L5.57015 2.836M5.56666 2.83736L5.57015 2.836M5.57015 2.836C6.1684 2.60335 6.85951 2.44021 7.89253 2.39299L5.57015 2.836ZM18.4333 21.1626L18.4334 21.1627C19.0546 20.9291 19.6182 20.5625 20.0841 20.0878L20.0884 20.0835L20.0884 20.0835C20.5624 19.618 20.9292 19.0548 21.1634 18.4332L21.1645 18.4301C21.3967 17.8317 21.5598 17.1405 21.607 16.1075C21.607 16.1075 21.607 16.1075 21.607 16.1074L18.4333 21.1626ZM18.4333 21.1626L18.4299 21.164M18.4333 21.1626L18.4299 21.164M18.4299 21.164C17.8316 21.3967 17.1405 21.5598 16.1075 21.607M18.4299 21.164L16.1075 21.607M12 2.33333C9.28561 2.33333 8.95156 2.34467 7.89255 2.39299L12 2.33333ZM12 2.33333C14.7148 2.33333 15.0484 2.34533 16.1069 2.39299L12 2.33333ZM21.164 5.57015C21.3967 6.1684 21.5598 6.85952 21.607 7.89253L16.107 2.393C17.1397 2.44022 17.8317 2.60398 18.4304 2.83557L18.4332 2.83661C19.0548 3.07077 19.618 3.4376 20.0835 3.91157L20.0835 3.9116L20.0878 3.91583C20.5619 4.38141 20.9287 4.9448 21.1627 5.56671L21.1627 5.56672L21.164 5.57015ZM16.0566 3.52702L16.0565 3.52701C14.9941 3.47866 14.6714 3.46867 12 3.46867C9.32862 3.46867 9.0059 3.47866 7.94351 3.52701L7.94341 3.52702C6.93458 3.57325 6.36986 3.74289 5.98388 3.89295C5.50456 4.06997 5.07087 4.35189 4.71451 4.71809C4.33343 5.10025 4.09105 5.47237 3.89403 5.9811C3.74279 6.36774 3.57333 6.9329 3.52702 7.94341L3.52701 7.94351C3.47866 9.0059 3.46867 9.32862 3.46867 12C3.46867 14.6714 3.47866 14.9941 3.52701 16.0565L3.52702 16.0566C3.57325 17.0654 3.74289 17.6302 3.89296 18.0161C4.06979 18.4946 4.35105 18.9276 4.71628 19.2837C5.07228 19.6489 5.50522 19.9302 5.98362 20.107C6.3702 20.258 6.93509 20.4268 7.94341 20.473L7.94351 20.473C9.0059 20.5213 9.32795 20.5313 12 20.5313C14.6721 20.5313 14.9941 20.5213 16.0565 20.473L16.0566 20.473C17.0654 20.4268 17.6301 20.2571 18.0161 20.107C18.4947 19.9303 18.9278 19.649 19.2838 19.2837C19.6489 18.9277 19.9302 18.4948 20.1069 18.0164C20.2579 17.6298 20.4268 17.0649 20.473 16.0566L20.473 16.0565C20.5213 14.9941 20.5313 14.6714 20.5313 12C20.5313 9.32862 20.5213 9.0059 20.473 7.94351L20.473 7.94341C20.4267 6.93264 20.2565 6.3677 20.1062 5.98166C19.9089 5.47219 19.6669 5.09945 19.2837 4.7163L19.2835 4.71607C18.9007 4.33406 18.5283 4.09129 18.0188 3.894C17.6322 3.74276 17.067 3.57332 16.0566 3.52702ZM20.198 12C20.198 14.67 20.188 14.9867 20.14 16.0413L19.7953 6.102C19.9327 6.45467 20.0953 6.984 20.14 7.95867C20.188 9.01333 20.198 9.33 20.198 12ZM12 20.198C9.32933 20.198 9.01333 20.188 7.95867 20.14H16.0413C14.9867 20.188 14.6707 20.198 12 20.198ZM10.5956 15.3906C11.0408 15.5751 11.5181 15.67 12 15.67C12.9734 15.67 13.9068 15.2833 14.5951 14.5951C15.2834 13.9068 15.67 12.9733 15.67 12C15.67 11.0267 15.2834 10.0932 14.5951 9.40492C13.9068 8.71666 12.9734 8.33 12 8.33C11.5181 8.33 11.0408 8.42493 10.5956 8.60936C10.1503 8.7938 9.74573 9.06413 9.40493 9.40492C9.06414 9.74571 8.79381 10.1503 8.60938 10.5956C8.42494 11.0408 8.33002 11.518 8.33002 12C8.33002 12.482 8.42494 12.9592 8.60938 13.4044C8.79381 13.8497 9.06414 14.2543 9.40493 14.5951C9.74573 14.9359 10.1503 15.2062 10.5956 15.3906ZM8.60119 8.60117C9.50261 7.69975 10.7252 7.19333 12 7.19333C13.2748 7.19333 14.4974 7.69975 15.3988 8.60117C16.3003 9.5026 16.8067 10.7252 16.8067 12C16.8067 13.2748 16.3003 14.4974 15.3988 15.3988C14.4974 16.3003 13.2748 16.8067 12 16.8067C10.7252 16.8067 9.50261 16.3003 8.60119 15.3988C7.69976 14.4974 7.19335 13.2748 7.19335 12C7.19335 10.7252 7.69976 9.5026 8.60119 8.60117ZM18.302 6.76667C18.302 7.0005 18.2091 7.22476 18.0438 7.3901C17.8784 7.55544 17.6542 7.64833 17.4204 7.64833C17.1865 7.64833 16.9623 7.55544 16.7969 7.3901C16.6316 7.22475 16.5387 7.0005 16.5387 6.76667C16.5387 6.53283 16.6316 6.30858 16.7969 6.14323C16.9623 5.97789 17.1865 5.885 17.4204 5.885C17.6542 5.885 17.8784 5.97789 18.0438 6.14323C18.2091 6.30858 18.302 6.53283 18.302 6.76667Z" stroke="white" stroke-width="0.666667"/>
    </symbol>
    <!-- Youtube -->
    <symbol id="youtube" viewBox="0 0 24 24" fill="none">
      <path d="M23.7609 7.1998C23.7609 7.1998 23.5266 5.54512 22.8047 4.81855C21.8906 3.8623 20.8688 3.85762 20.4 3.80137C17.0438 3.55762 12.0047 3.55762 12.0047 3.55762H11.9953C11.9953 3.55762 6.95625 3.55762 3.6 3.80137C3.13125 3.85762 2.10938 3.8623 1.19531 4.81855C0.473438 5.54512 0.24375 7.1998 0.24375 7.1998C0.24375 7.1998 0 9.14512 0 11.0857V12.9045C0 14.8451 0.239062 16.7904 0.239062 16.7904C0.239062 16.7904 0.473437 18.4451 1.19062 19.1717C2.10469 20.1279 3.30469 20.0951 3.83906 20.1982C5.76094 20.3811 12 20.4373 12 20.4373C12 20.4373 17.0438 20.4279 20.4 20.1889C20.8688 20.1326 21.8906 20.1279 22.8047 19.1717C23.5266 18.4451 23.7609 16.7904 23.7609 16.7904C23.7609 16.7904 24 14.8498 24 12.9045V11.0857C24 9.14512 23.7609 7.1998 23.7609 7.1998ZM9.52031 15.1123V8.36699L16.0031 11.7514L9.52031 15.1123Z" fill="white"/>
    </symbol>
    <!-- Telegram -->
    <symbol id="telegram" viewBox="0 0 25 25" fill="none">
      <rect width="24" height="24" rx="12" fill="white"/>
      <path fill-rule="evenodd" clip-rule="evenodd" d="M5.43299 11.8734C8.93124 10.3493 11.2639 9.34452 12.4311 8.85905C15.7637 7.47294 16.4561 7.23216 16.9075 7.22421C17.0067 7.22246 17.2287 7.24706 17.3725 7.36372C17.4939 7.46223 17.5273 7.5953 17.5433 7.6887C17.5592 7.78209 17.5791 7.99485 17.5633 8.1611C17.3827 10.0586 16.6013 14.6633 16.2038 16.7885C16.0356 17.6877 15.7043 17.9892 15.3837 18.0188C14.6868 18.0829 14.1577 17.5582 13.4827 17.1158C12.4266 16.4235 11.8299 15.9925 10.8047 15.3169C9.61994 14.5362 10.388 14.107 11.0632 13.4058C11.2399 13.2222 14.3103 10.4295 14.3697 10.1761C14.3771 10.1444 14.384 10.0263 14.3139 9.96397C14.2437 9.9016 14.1401 9.92293 14.0654 9.93989C13.9595 9.96393 12.2723 11.0791 9.00374 13.2855C8.52483 13.6143 8.09104 13.7746 7.70239 13.7662C7.27393 13.7569 6.44974 13.5239 5.83704 13.3247C5.08554 13.0804 4.48826 12.9513 4.54027 12.5364C4.56736 12.3203 4.86493 12.0993 5.43299 11.8734Z" fill="#2641B2"/>
    </symbol>
    <!-- Telegram dark-->
    <symbol id="telegram-dark" viewBox="0 0 25 25" fill="none">
      <rect width="24" height="24" rx="12" fill="white"/>
      <path fill-rule="evenodd" clip-rule="evenodd" d="M5.43299 11.8734C8.93124 10.3493 11.2639 9.34452 12.4311 8.85905C15.7637 7.47294 16.4561 7.23216 16.9075 7.22421C17.0067 7.22246 17.2287 7.24706 17.3725 7.36372C17.4939 7.46223 17.5273 7.5953 17.5433 7.6887C17.5592 7.78209 17.5791 7.99485 17.5633 8.1611C17.3827 10.0586 16.6013 14.6633 16.2038 16.7885C16.0356 17.6877 15.7043 17.9892 15.3837 18.0188C14.6868 18.0829 14.1577 17.5582 13.4827 17.1158C12.4266 16.4235 11.8299 15.9925 10.8047 15.3169C9.61994 14.5362 10.388 14.107 11.0632 13.4058C11.2399 13.2222 14.3103 10.4295 14.3697 10.1761C14.3771 10.1444 14.384 10.0263 14.3139 9.96397C14.2437 9.9016 14.1401 9.92293 14.0654 9.93989C13.9595 9.96393 12.2723 11.0791 9.00374 13.2855C8.52483 13.6143 8.09104 13.7746 7.70239 13.7662C7.27393 13.7569 6.44974 13.5239 5.83704 13.3247C5.08554 13.0804 4.48826 12.9513 4.54027 12.5364C4.56736 12.3203 4.86493 12.0993 5.43299 11.8734Z" fill="#03256C"/>
    </symbol>
    <!-- Customer-1 icon -->
    <symbol id="customer-1" viewBox="0 0 32 32" fill="none">
      <path d="M20 28V20.8C20 20.0533 20 19.6799 19.8547 19.3947C19.7268 19.1438 19.5229 18.9398 19.272 18.812C18.9868 18.6667 18.6134 18.6667 17.8667 18.6667H14.1333C13.3866 18.6667 13.0132 18.6667 12.728 18.812C12.4771 18.9398 12.2732 19.1438 12.1453 19.3947C12 19.6799 12 20.0533 12 20.8V28M4 9.33333C4 11.5425 5.79086 13.3333 8 13.3333C10.2091 13.3333 12 11.5425 12 9.33333C12 11.5425 13.7909 13.3333 16 13.3333C18.2091 13.3333 20 11.5425 20 9.33333C20 11.5425 21.7909 13.3333 24 13.3333C26.2091 13.3333 28 11.5425 28 9.33333M8.26667 28H23.7333C25.2268 28 25.9735 28 26.544 27.7094C27.0457 27.4537 27.4537 27.0457 27.7094 26.544C28 25.9735 28 25.2268 28 23.7333V8.26667C28 6.77319 28 6.02646 27.7094 5.45603C27.4537 4.95426 27.0457 4.54631 26.544 4.29065C25.9735 4 25.2268 4 23.7333 4H8.26667C6.77319 4 6.02646 4 5.45603 4.29065C4.95426 4.54631 4.54631 4.95426 4.29065 5.45603C4 6.02646 4 6.77319 4 8.26667V23.7333C4 25.2268 4 25.9735 4.29065 26.544C4.54631 27.0457 4.95426 27.4537 5.45603 27.7094C6.02646 28 6.77319 28 8.26667 28Z" stroke="white" stroke-width="2" stroke-linecap="round" stroke-linejoin="round"/>
    </symbol>
    <!-- Customer-2 icon -->
    <symbol id="customer-2" viewBox="0 0 32 32" fill="none">
      <path d="M4 28H28M8 24V13.3333M13.3333 24V13.3333M18.6667 24V13.3333M24 24V13.3333M26.6667 9.3333L16.5653 3.01997C16.3602 2.89179 16.2577 2.8277 16.1477 2.80271C16.0505 2.78061 15.9495 2.78061 15.8523 2.80271C15.7423 2.8277 15.6398 2.89179 15.4347 3.01997L5.33333 9.3333H26.6667Z" stroke="white" stroke-width="2" stroke-linecap="round" stroke-linejoin="round"/> 
    </symbol>
    <!-- Customer-3 icon -->
    <symbol id="customer-3" viewBox="0 0 32 32" fill="none">
      <path d="M12.6663 9.33333H19.333M12.6663 14.6667H19.333M12.6663 20H19.333M23.9997 28V8.26667C23.9997 6.77319 23.9997 6.02646 23.709 5.45603C23.4534 4.95426 23.0454 4.54631 22.5436 4.29065C21.9732 4 21.2265 4 19.733 4H12.2663C10.7729 4 10.0261 4 9.4557 4.29065C8.95393 4.54631 8.54599 4.95426 8.29032 5.45603C7.99967 6.02646 7.99967 6.77319 7.99967 8.26667V28M26.6663 28H5.33301" stroke="white" stroke-width="2" stroke-linecap="round" stroke-linejoin="round"/>
    </symbol>
    <!-- Customer-4 icon -->
    <symbol id="customer-4" viewBox="0 0 32 32" fill="none">
      <path d="M20 28V20.8C20 20.0533 20 19.6799 19.8547 19.3947C19.7268 19.1438 19.5229 18.9398 19.272 18.812C18.9868 18.6667 18.6134 18.6667 17.8667 18.6667H14.1333C13.3866 18.6667 13.0132 18.6667 12.728 18.812C12.4771 18.9398 12.2732 19.1438 12.1453 19.3947C12 19.6799 12 20.0533 12 20.8V28M25.3333 28V8.26667C25.3333 6.77319 25.3333 6.02646 25.0427 5.45603C24.787 4.95426 24.3791 4.54631 23.8773 4.29065C23.3069 4 22.5601 4 21.0667 4H10.9333C9.43986 4 8.69312 4 8.12269 4.29065C7.62093 4.54631 7.21298 4.95426 6.95732 5.45603C6.66667 6.02646 6.66667 6.77319 6.66667 8.26667V28M28 28H4M12.6667 10.6667H12.68M19.3333 10.6667H19.3467M13.3333 10.6667C13.3333 11.0349 13.0349 11.3333 12.6667 11.3333C12.2985 11.3333 12 11.0349 12 10.6667C12 10.2985 12.2985 10 12.6667 10C13.0349 10 13.3333 10.2985 13.3333 10.6667ZM20 10.6667C20 11.0349 19.7015 11.3333 19.3333 11.3333C18.9651 11.3333 18.6667 11.0349 18.6667 10.6667C18.6667 10.2985 18.9651 10 19.3333 10C19.7015 10 20 10.2985 20 10.6667Z" stroke="white" stroke-width="2" stroke-linecap="round" stroke-linejoin="round"/>
    </symbol>
    <!-- Customer-5 icon -->
    <symbol id="customer-5" viewBox="0 0 32 32" fill="none">
      <path d="M20 28V20.8C20 20.0533 20 19.6799 19.8547 19.3947C19.7268 19.1438 19.5229 18.9398 19.272 18.812C18.9868 18.6667 18.6134 18.6667 17.8667 18.6667H14.1333C13.3866 18.6667 13.0132 18.6667 12.728 18.812C12.4771 18.9398 12.2732 19.1438 12.1453 19.3947C12 19.6799 12 20.0533 12 20.8V28M25.3333 28V8.26667C25.3333 6.77319 25.3333 6.02646 25.0427 5.45603C24.787 4.95426 24.3791 4.54631 23.8773 4.29065C23.3069 4 22.5601 4 21.0667 4H10.9333C9.43986 4 8.69312 4 8.12269 4.29065C7.62093 4.54631 7.21298 4.95426 6.95732 5.45603C6.66667 6.02646 6.66667 6.77319 6.66667 8.26667V28M28 28H4M16 7.5V10M16 12.5V10M16 10H13.5H18.5" stroke="white" stroke-width="2" stroke-linecap="round" stroke-linejoin="round"/>
    </symbol>
    <!-- Customer-6 icon -->
    <symbol id="customer-6" viewBox="0 0 32 32" fill="none">
      <path d="M14.667 14.6667H8.26699C6.77352 14.6667 6.02678 14.6667 5.45635 14.9573C4.95459 15.213 4.54664 15.6209 4.29097 16.1227C4.00033 16.6931 4.00033 17.4399 4.00033 18.9333V28M28.0003 28V8.26667C28.0003 6.77319 28.0003 6.02646 27.7097 5.45603C27.454 4.95426 27.0461 4.54631 26.5443 4.29065C25.9739 4 25.2271 4 23.7337 4H18.9337C17.4402 4 16.6934 4 16.123 4.29065C15.6213 4.54631 15.2133 4.95426 14.9576 5.45603C14.667 6.02646 14.667 6.77319 14.667 8.26667V28M29.3337 28H2.66699M19.3337 9.33333H23.3337M19.3337 14.6667H23.3337M19.3337 20H23.3337" stroke="white" stroke-width="2" stroke-linecap="round" stroke-linejoin="round"/>
    </symbol>
    <!-- Attention icon -->
    <symbol id="attention" viewBox="0 0 24 24" fill="none">
      <path d="M12 22C17.5228 22 22 17.5228 22 12C22 6.47715 17.5228 2 12 2C6.47715 2 2 6.47715 2 12C2 17.5228 6.47715 22 12 22Z" stroke="#2641B2" stroke-width="2" stroke-linecap="round" stroke-linejoin="round"/>
      <path d="M12 8V12" stroke="#2641B2" stroke-width="2" stroke-linecap="round" stroke-linejoin="round"/>
      <path d="M12 16H12.01" stroke="#2641B2" stroke-width="2" stroke-linecap="round" stroke-linejoin="round"/>
    </symbol>
    <!-- Cheked icon -->
    <symbol id="checked" viewBox="0 0 10 8">
      <path d="M8.446.255A.917.917 0 0 1 10 .901a.928.928 0 0 1-.242.649L4.864 7.704a.92.92 0 0 1-1.019.229.92.92 0 0 1-.306-.204L.293 4.466a.925.925 0 0 1-.226-1.024.925.925 0 0 1 .87-.578.916.916 0 0 1 .656.294L4.162 5.74 8.422.282a.329.329 0 0 1 .025-.027h-.001Z"/>
    </symbol>
    <!-- Success icon -->
    <symbol id="success" viewBox="0 0 24 24" fill="none">
      <path d="M12 22C17.523 22 22 17.523 22 12C22 6.477 17.523 2 12 2C6.477 2 2 6.477 2 12C2 17.523 6.477 22 12 22Z" stroke="#00AD11" stroke-width="2" stroke-linecap="round" stroke-linejoin="round"/>
      <path d="M9 12L11 14L15 10" stroke="#00AD11" stroke-width="2" stroke-linecap="round" stroke-linejoin="round"/>
    </symbol>
    <!-- Menu icon -->
    <symbol id="menu" viewBox="0 0 24 24" fill="none">
      <path d="M4 12H20" stroke="white" stroke-width="1.5" stroke-linecap="round" stroke-linejoin="round"/>
      <path d="M4 6H20" stroke="white" stroke-width="1.5" stroke-linecap="round" stroke-linejoin="round"/>
      <path d="M4 18H20" stroke="white" stroke-width="1.5" stroke-linecap="round" stroke-linejoin="round"/>
    </symbol>
    <!-- Menu close -->
    <symbol id="close-white" viewBox="0 0 16 16" fill="none">
        <path d="M12 4L4 12" stroke="white" stroke-linecap="round" stroke-linejoin="round"/>
        <path d="M4 4L12 12" stroke="white" stroke-linecap="round" stroke-linejoin="round"/>
    </symbol>
     <!-- Arrow up -->
    <symbol id="arrow-up" viewBox="0 0 24 24" fill="none">
        <path d="M12 19V5" stroke="white" stroke-width="2" stroke-linecap="round" stroke-linejoin="round"/>
        <path d="M5 12L12 5L19 12" stroke="white" stroke-width="2" stroke-linecap="round" stroke-linejoin="round"/>
    </symbol>
  </defs>
</svg>