<svg width="210" height="72" fill="none" xmlns="http://www.w3.org/2000/svg">
  <path fill-rule="evenodd" clip-rule="evenodd" d="M.555 36.948V48.38h5.327v-9.146h3.675l2.933 4.544 2.934 4.545 2.934.123c1.613.069 4.122.039 5.575-.066l2.642-.19.783-1.908c.43-1.048.92-2.12 1.09-2.381.436-.672 10.29-.671 10.817.001.205.262.684 1.308 1.064 2.324.379 1.016.892 1.925 1.14 2.02.247.095 1.494.121 2.77.058l2.321-.115-5.03-11.24-5.031-11.242h-5.233l-4.501 10.098a3007.437 3007.437 0 0 1-5.017 11.217l-.515 1.118-3.68-5.615c-2.025-3.089-3.681-5.697-3.681-5.797 0-.1 1.584-2.534 3.52-5.41 1.935-2.877 3.576-5.359 3.646-5.516.07-.157-1.073-.286-2.54-.286H15.83l-3.115 4.764L9.6 35.043H5.882v-9.527H.555v11.432Zm52.5-10.384c-.03 3.912-.844 12.786-1.326 14.446-.613 2.112-1.662 3.178-3.127 3.178-.853 0-.866.068-.866 4.573v4.572h4.946v-4.968l8.085.102 8.086.103.113 2.382.113 2.382h4.53v-9.146h-3.044V25.516H53.062l-.008 1.048ZM77.413 36.91v11.47h5.327v-5.997l3.911-.174c4.987-.223 7.655-1.306 9.283-3.77.943-1.428 1.074-1.98 1.074-4.54 0-3.834-1.107-5.678-4.308-7.173-2.024-.946-2.574-1.018-8.724-1.147l-6.563-.138v11.47Zm23.59.02v11.45l2.569-.012 2.568-.011 5.327-7.322 5.327-7.322.103 7.333.103 7.334h5.311V25.516l-2.568.013-2.569.013-5.327 7.363-5.326 7.363-.191-7.28-.19-7.281-2.568-.113-2.569-.112V36.93Zm-35.472.113.103 7.145H60.45c-4.794 0-5.164-.05-4.901-.667.847-1.985 1.376-4.931 1.557-8.669.113-2.305.273-4.412.356-4.681.115-.367 1.134-.463 4.06-.381l3.907.108.103 7.145Zm23.325-6.952c2.688.748 3.934 3.474 2.668 5.843-.725 1.356-2.113 1.865-5.645 2.07l-3.14.183v-8.479l2.379.002c1.308.001 2.99.172 3.738.38Zm-52.873 5.63c.813 2.002 1.478 3.697 1.478 3.767 0 .07-1.64.127-3.646.127-2.006 0-3.59-.136-3.52-.303.07-.167.881-2.157 1.802-4.422 1.903-4.678 1.623-4.737 3.886.831Z" fill="#2641B2"/>
  <path fill-rule="evenodd" clip-rule="evenodd" d="M150.848.508c-6.576 1.438-11.852 7.051-12.942 13.768-.484 2.987-.484 40.453 0 43.44 1.122 6.91 6.665 12.612 13.488 13.873 1.455.268 9.43.415 22.449.41 21.555-.005 22.965-.108 26.559-1.945 2.193-1.12 5.676-4.538 6.877-6.746 2.117-3.897 2.165-4.498 2.165-27.312 0-17.628-.093-21.348-.583-23.231-1.63-6.266-6.853-11.209-13.1-12.395-2.997-.57-42.231-.449-44.913.138Zm4.947 31.468c0 7.73.378 9.917 1.943 11.236 2.339 1.97 5.817 1.55 7.468-.903.825-1.228.862-1.61.862-9.037v-7.755h5.327v7.56c0 5.423-.152 8.068-.539 9.353-1.289 4.29-4.661 6.487-9.925 6.468-3.654-.013-6.008-.97-7.934-3.223-2.01-2.352-2.248-3.553-2.43-12.251l-.166-7.907h5.394v6.459Zm37.959 4.877c2.773 6.235 5.04 11.473 5.038 11.64-.001.165-1.219.251-2.707.19l-2.705-.112-.95-2.382-.95-2.382h-10.873l-.95 2.382-.95 2.382-2.752.112c-2.516.104-2.73.054-2.491-.571.144-.377 2.434-5.61 5.089-11.63l4.827-10.947 2.667-.01 2.667-.008 5.04 11.336Zm-9.489-1.706-1.733 4.278 3.422.11c1.881.061 3.482.05 3.556-.025.108-.108-3.157-8.239-3.435-8.554-.042-.048-.857 1.838-1.81 4.192Z" fill="#FBD437"/>
</svg>
