<svg width="104" height="36" fill="none" xmlns="http://www.w3.org/2000/svg">
  <path fill-rule="evenodd" clip-rule="evenodd" d="M0 18.474v5.716h2.652v-4.573h1.83l1.46 2.273 1.46 2.272 1.462.062a29.52 29.52 0 0 0 2.775-.034l1.316-.095.39-.953c.214-.525.458-1.06.542-1.191.217-.336 5.123-.336 5.386 0 .102.131.34.654.53 1.162.188.508.444.963.567 1.01.123.048.744.06 1.38.03l1.155-.058-2.505-5.62-2.504-5.621H15.29l-2.24 5.049a1575.63 1575.63 0 0 1-2.498 5.608l-.257.56-1.832-2.809c-1.008-1.544-1.833-2.848-1.833-2.898 0-.05.789-1.267 1.753-2.705.963-1.438 1.78-2.68 1.815-2.758.035-.078-.534-.143-1.265-.143H7.605l-1.55 2.382-1.552 2.382H2.652v-4.764H0v5.716Zm26.138-5.192c-.014 1.956-.42 6.393-.66 7.223-.305 1.056-.827 1.59-1.557 1.59-.424 0-.43.033-.43 2.286v2.286h2.461v-2.484l4.025.051 4.026.051.056 1.191.056 1.191h2.256v-4.573h-1.516v-9.336h-8.714l-.004.524Zm12.128 5.173v5.735h2.652v-2.998l1.948-.087c2.482-.112 3.81-.653 4.621-1.885.47-.714.535-.99.535-2.27 0-1.917-.551-2.839-2.145-3.587-1.008-.473-1.281-.508-4.343-.573l-3.268-.07v5.735Zm11.745.01v5.725l1.279-.006 1.279-.005 2.652-3.661 2.652-3.661.051 3.666.052 3.667h2.644V12.758l-1.28.007-1.278.006-2.652 3.682-2.652 3.681-.095-3.64-.094-3.64-1.28-.057-1.278-.056v5.724Zm-17.66.057.05 3.572h-2.58c-2.387 0-2.572-.025-2.441-.333.422-.993.685-2.466.776-4.335.055-1.152.135-2.206.177-2.34.057-.184.564-.232 2.02-.19l1.946.053.051 3.573Zm11.612-3.476c1.339.373 1.959 1.737 1.329 2.921-.361.678-1.052.933-2.81 1.035l-1.564.092v-4.24l1.184.001c.652.001 1.489.086 1.861.19ZM17.64 17.86c.405 1 .736 1.848.736 1.883 0 .035-.817.064-1.815.064-.999 0-1.787-.068-1.752-.152l.897-2.211c.947-2.338.808-2.368 1.934.416Z" fill="#fff"/>
  <path fill-rule="evenodd" clip-rule="evenodd" d="M74.828.254c-3.275.72-5.901 3.526-6.444 6.884-.241 1.493-.241 20.226 0 21.72.558 3.455 3.318 6.306 6.715 6.936.725.135 4.695.208 11.177.206 10.732-.003 11.434-.055 13.223-.973 1.092-.56 2.826-2.269 3.424-3.373 1.054-1.948 1.078-2.25 1.078-13.656 0-8.814-.047-10.674-.291-11.616-.811-3.133-3.412-5.604-6.521-6.197C95.696-.1 76.163-.039 74.828.254Zm2.462 15.734c0 3.865.188 4.959.968 5.618 1.164.985 2.896.775 3.718-.452.41-.613.429-.804.429-4.518v-3.878h2.652v3.78c0 2.712-.076 4.035-.268 4.677-.642 2.145-2.32 3.244-4.942 3.234-1.819-.007-2.99-.485-3.95-1.611-1-1.176-1.12-1.777-1.21-6.126l-.082-3.954h2.685v3.23Zm18.9 2.439c1.38 3.117 2.508 5.736 2.508 5.82-.001.082-.608.125-1.348.094l-1.347-.056-.473-1.19-.473-1.191h-5.413l-.473 1.19-.473 1.191-1.37.057c-1.253.051-1.36.027-1.24-.286a616.61 616.61 0 0 1 2.533-5.815l2.403-5.474 1.328-.004 1.328-.005 2.51 5.669Zm-4.725-.853-.863 2.139 1.703.055c.937.03 1.734.024 1.771-.013.054-.054-1.572-4.12-1.71-4.277-.021-.024-.427.92-.901 2.096Z" fill="#FBD437"/>
</svg>
